<?xml version="1.0" encoding="utf-8"?>
<!-- Generator: Adobe Illustrator 24.3.0, SVG Export Plug-In . SVG Version: 6.00 Build 0)  -->
<svg version="1.1" id="Layer_1" xmlns="http://www.w3.org/2000/svg" xmlns:xlink="http://www.w3.org/1999/xlink" x="0px" y="0px"
	 viewBox="0 0 184 50" style="enable-background:new 0 0 184 50;" xml:space="preserve">
<style type="text/css">
	.st0{fill:#02549E;}
	.st1{fill:#69B144;}
	.st2{fill:#6AB144;}
	.st3{fill:#095EAA;}
</style>
<g>
	<g>
		<path class="st0" d="M63.7,39.1L76,10.7h4.4l12.2,28.4h-5.8l-2.6-6.5H71.9l-2.6,6.5H63.7z M73.6,28.3h8.8l-4.4-11.5L73.6,28.3z"/>
		<path class="st0" d="M95.3,39.1V19.8h4.8v3h0.1c0.5-1.1,1.3-2,2.3-2.6c1-0.6,2.1-0.9,3.4-0.9c0.5,0,1.1,0.1,1.7,0.3v4.7
			c-1-0.2-1.7-0.4-2.3-0.4c-1,0-1.9,0.2-2.7,0.6c-0.7,0.4-1.3,0.9-1.6,1.5c-0.3,0.6-0.5,1.1-0.7,1.6c-0.1,0.5-0.2,0.9-0.2,1.2v10.3
			H95.3z"/>
		<path class="st0" d="M113,36.7c-2-1.9-3-4.3-3-7.3s1-5.4,3-7.3c2-1.9,4.5-2.8,7.5-2.8s5.5,0.9,7.5,2.8c2,1.9,3,4.3,3,7.3
			s-1,5.4-3,7.3c-2,1.9-4.5,2.8-7.5,2.8S115,38.6,113,36.7z M116.3,25.4c-1,1.1-1.5,2.5-1.5,4.1c0,1.6,0.5,2.9,1.5,4.1
			c1,1.1,2.4,1.7,4.1,1.7c1.7,0,3.1-0.6,4.1-1.7c1-1.1,1.5-2.5,1.5-4.1c0-1.6-0.5-2.9-1.5-4.1c-1-1.1-2.4-1.7-4.1-1.7
			C118.7,23.7,117.4,24.3,116.3,25.4z"/>
		<path class="st1" d="M140.6,39.1l-7.9-19.2h5.3l5.1,13.5h0.1l5.2-13.5h4.9l-7.6,19.2H140.6z"/>
		<path class="st1" d="M156.5,15.3c-0.6-0.6-0.9-1.2-0.9-2c0-0.8,0.3-1.4,0.9-2c0.6-0.6,1.3-0.9,2.2-0.9c0.9,0,1.6,0.3,2.2,0.8
			c0.6,0.5,0.9,1.2,0.9,2.1c0,0.8-0.3,1.5-0.9,2.1c-0.6,0.5-1.3,0.8-2.2,0.8C157.8,16.2,157.1,15.9,156.5,15.3z M156.3,39.1V19.8
			h4.8v19.2H156.3z"/>
		<path class="st1" d="M178.7,39.1v-2.6h-0.1c-1.3,2.1-3.4,3.1-6.2,3.1c-1.9,0-3.6-0.5-5-1.5c-1.4-1-2.1-2.4-2.1-4.3
			c0-1,0.2-1.9,0.5-2.7s0.9-1.4,1.6-1.8c0.7-0.5,1.4-0.9,2.1-1.2c0.7-0.3,1.6-0.5,2.6-0.7c1-0.1,1.9-0.2,2.7-0.3
			c0.8,0,1.6-0.1,2.6-0.1h1.2v-0.5c0-1.1-0.4-2-1.2-2.7c-0.8-0.6-1.9-0.9-3.2-0.9c-2,0-3.7,0.7-5.1,2l-2.5-2.5
			c2-2.1,4.8-3.1,8.2-3.1c1.1,0,2.1,0.1,3,0.4c0.9,0.2,1.6,0.5,2.2,0.9c0.6,0.3,1.1,0.8,1.5,1.3c0.4,0.6,0.7,1.1,0.9,1.5
			c0.2,0.5,0.3,1,0.4,1.7c0.1,0.7,0.2,1.2,0.2,1.5c0,0.3,0,0.8,0,1.4v11.1H178.7z M178.4,31.6v-1.1h-1c-4.8,0-7.2,1-7.2,3
			c0,0.8,0.3,1.5,1,1.9s1.5,0.6,2.3,0.6c1.6,0,2.8-0.4,3.6-1.2C178,34,178.4,32.9,178.4,31.6z"/>
	</g>
	<g>
		<path class="st0" d="M28.7,44.7c-14.1,0-25.5-10.8-25.5-24.2c0-2.9,0.5-5.7,1.5-8.2C2.4,15.9,1,20.2,1,24.8
			C1,38.2,12.6,49,26.9,49c12.6,0,23.1-8.4,25.4-19.5C48.6,38.4,39.5,44.7,28.7,44.7z"/>
		<path class="st2" d="M17.7,6.6c10.1-4.9,21.7-2.8,28.8,4.4C39.9,1.8,27.7-1.7,17.6,3.3C11.1,6.4,6.9,12.4,5.5,19.1
			C7.8,13.9,12,9.4,17.7,6.6z"/>
		<path class="st1" d="M39.8,24v-2.4h9.5c0-0.2-0.1-0.4-0.1-0.6c-0.1-0.4-0.2-0.8-0.4-1.2h-3.3l-0.9-1.2h-8.3
			c-3.5,0.6-7.8,1.5-9.7,2.8c0,0,1.9-2.3,7.2-3.8v-7.4c0-1.3-1.1-1.9-2.3-2.1c-1.2-0.3-3.2-0.4-4.2-0.4c-1.1,0-3.1,0.2-4.2,0.4
			c-1.3,0.3-2.3,0.9-2.3,2.1v8.4H11c-1.3,0-1.9,1.1-2.1,2.3c-0.3,1.2-0.4,3.2-0.4,4.2c0,1.1,0.2,3.1,0.4,4.2
			c0.3,1.3,0.9,2.3,2.1,2.3h1.4c0,0,1.7,0,3.7,0s4.5-2.2,7.5-4.7C26.6,24.7,31.7,22.5,39.8,24z"/>
		<path class="st3" d="M44.1,24L44.1,24c-1.4,0.1-2.5,1-2.9,2.2c-9-2.1-13.7,0.3-18.1,3.7c-2,1.6-3.8,2.8-5.3,3.5c0,0,1.2-0.2,2.8-1
			v7.8c0,1.3,1.1,1.9,2.3,2.1c1.2,0.3,3.2,0.4,4.2,0.4c1.1,0,3.1-0.2,4.2-0.4c1.3-0.3,2.3-0.9,2.3-2.1v-8.4h8h2.3
			c1.8,0,3.3-1.5,3.3-3.3v-1.3C47.4,25.5,45.9,24,44.1,24z M44.3,29c-1.1,0-1.9-0.9-1.9-1.9c0-1.1,0.9-1.9,1.9-1.9s1.9,0.9,1.9,1.9
			C46.2,28.2,45.3,29,44.3,29z"/>
		<circle class="st3" cx="49.6" cy="20.6" r="1.9"/>
	</g>
</g>
<path class="st3" d="M42.5,14c-0.9,0-1.7,0.7-1.8,1.6c-2.2,0.5-4.2,1.6-4.2,1.6c2.3-0.3,3.8-0.3,4.6-0.2c0.3,0.4,0.8,0.7,1.4,0.7
	c1,0,1.8-0.8,1.8-1.8C44.3,14.8,43.5,14,42.5,14z"/>
</svg>
